<?xml version="1.0" standalone="no"?>
<!DOCTYPE svg PUBLIC "-//W3C//DTD SVG 20010904//EN"
 "http://www.w3.org/TR/2001/REC-SVG-20010904/DTD/svg10.dtd">
<svg version="1.0" xmlns="http://www.w3.org/2000/svg"
 width="484.000000pt" height="579.000000pt" viewBox="0 0 484.000000 579.000000"
 preserveAspectRatio="xMidYMid meet">

<g transform="translate(0.000000,579.000000) scale(0.100000,-0.100000)"
fill="#000000" stroke="none">
<path d="M2408 5175 c-2 -2 -49 -11 -104 -19 -141 -22 -173 -33 -358 -122
-112 -54 -200 -114 -253 -173 -33 -37 -113 -170 -166 -276 -25 -49 -68 -163
-96 -253 -56 -181 -71 -212 -146 -292 -71 -75 -76 -89 -82 -200 -8 -133 6
-184 79 -293 58 -86 59 -89 40 -103 -38 -27 -268 -214 -317 -258 -41 -38 -47
-47 -35 -56 13 -8 431 -150 443 -150 3 0 27 18 53 40 45 37 84 52 84 32 0 -5
11 -15 25 -22 34 -18 32 -29 -11 -66 l-36 -32 44 -15 c23 -9 117 -39 208 -68
91 -28 205 -65 253 -80 49 -16 95 -29 102 -29 7 0 44 32 81 71 l69 70 59 -3
c53 -3 58 -5 45 -18 -9 -8 -53 -66 -98 -128 -71 -96 -86 -112 -105 -107 -24 7
-81 25 -186 59 -84 27 -506 162 -558 178 -18 5 -35 8 -37 6 -3 -2 -9 -49 -15
-104 -5 -54 -12 -111 -15 -126 -3 -16 0 -28 6 -28 6 0 56 18 110 40 93 37 189
54 189 32 0 -4 -43 -29 -95 -55 -52 -26 -95 -50 -95 -54 0 -12 52 -33 64 -26
6 3 8 3 4 -2 -7 -7 32 -45 47 -45 25 0 153 -205 176 -284 27 -89 44 -197 32
-205 -12 -8 -93 -140 -93 -151 0 -15 -44 -104 -55 -112 -6 -5 -5 -8 3 -8 7 0
0 -13 -15 -30 -31 -35 -49 -40 -32 -9 19 36 6 232 -21 314 -12 39 -28 77 -35
85 -6 8 -27 42 -45 75 -34 60 -95 135 -111 135 -4 0 -23 -13 -41 -29 -18 -15
-47 -35 -63 -44 -30 -15 -31 -15 -89 33 -93 76 -146 98 -267 107 l-104 8 120
49 c255 104 310 128 322 139 6 7 17 78 24 162 7 87 17 158 25 170 13 20 8 22
-109 60 -67 21 -166 53 -220 71 -92 30 -98 31 -107 13 -6 -10 -10 -31 -10 -47
0 -36 -32 -208 -65 -354 -14 -58 -25 -115 -25 -126 0 -11 -7 -35 -15 -53 -15
-34 -15 -33 -10 31 3 36 8 84 11 106 6 53 -15 64 -50 29 -14 -14 -29 -25 -35
-25 -11 0 -120 -49 -196 -87 -47 -24 -52 -31 -97 -127 -66 -143 -124 -277
-133 -306 -6 -20 -51 -122 -62 -139 -8 -12 -53 25 -53 42 0 11 25 77 56 146
63 142 63 142 48 147 -10 4 -28 -27 -79 -139 -30 -66 -60 -176 -70 -257 -6
-48 -4 -58 14 -74 23 -21 29 -74 10 -93 -8 -8 -1 -30 25 -82 19 -39 30 -71 24
-71 -18 0 -89 81 -109 125 -10 22 -19 54 -20 70 0 17 -3 24 -6 18 -2 -7 -16
-13 -29 -13 -19 0 -24 -5 -24 -25 0 -14 5 -25 10 -25 6 0 10 -9 10 -21 0 -11
8 -35 17 -52 22 -41 104 -127 119 -127 7 0 21 -10 31 -22 20 -24 33 -34 98
-69 22 -11 42 -24 45 -28 7 -9 41 -29 68 -41 12 -5 22 -14 22 -19 0 -7 28 -21
53 -25 5 0 14 -9 21 -18 7 -9 24 -20 39 -23 14 -4 31 -13 38 -21 6 -8 17 -14
23 -14 6 0 17 -9 24 -21 7 -12 16 -18 19 -15 5 5 20 -6 80 -54 6 -5 23 -12 37
-16 14 -3 26 -10 26 -14 0 -5 10 -12 23 -15 12 -4 39 -20 59 -36 20 -16 48
-29 62 -29 14 0 28 -4 31 -10 3 -5 33 -10 66 -10 72 0 149 32 273 114 46 31
86 56 89 56 4 0 29 14 56 31 l50 30 38 -17 c21 -10 41 -22 45 -28 4 -6 16 -3
32 7 l26 17 -21 53 c-41 103 -21 227 45 270 34 23 104 21 142 -2 100 -61 153
-232 105 -338 -26 -55 -62 -78 -126 -78 l-50 0 -13 -180 c-17 -240 -13 -258
77 -350 72 -74 101 -96 207 -160 36 -22 80 -50 97 -62 18 -12 48 -32 67 -43
19 -11 54 -33 76 -48 23 -15 74 -47 113 -71 57 -35 71 -48 71 -68 l0 -24 273
2 c149 1 274 4 277 8 7 9 100 71 106 71 5 0 64 40 74 50 3 3 21 14 40 24 19
11 51 32 71 48 20 15 40 28 44 28 5 0 26 15 49 33 45 35 116 86 144 102 10 6
38 26 62 45 25 19 52 40 61 45 39 24 75 49 84 59 16 17 83 66 90 66 4 0 30 19
58 42 28 24 58 48 68 53 9 6 77 56 152 112 75 57 140 103 146 103 6 0 11 4 11
8 0 4 25 25 56 47 233 165 359 316 474 570 18 39 36 78 41 87 5 10 9 122 9
249 l0 231 -42 40 c-39 36 -88 63 -175 98 -33 12 -33 13 -33 83 l0 71 -50 47
c-33 31 -62 49 -87 54 -21 4 -42 10 -48 14 -13 10 -130 56 -177 71 -24 7 -60
34 -98 74 -52 54 -72 67 -128 85 -37 12 -82 31 -100 42 -18 10 -40 19 -48 19
-21 0 -17 23 11 61 84 116 87 120 82 184 -3 47 2 72 21 120 35 86 48 122 67
190 9 33 21 74 26 90 4 17 11 50 14 75 4 25 11 54 16 65 13 29 31 205 31 310
0 124 -13 201 -45 260 -15 27 -27 64 -27 82 0 38 -38 73 -81 73 -15 0 -31 5
-34 10 -3 6 -21 10 -39 10 -27 0 -40 -9 -76 -51 -23 -27 -41 -51 -39 -52 47
-30 118 -58 161 -63 l56 -7 -12 -26 c-18 -40 -57 -101 -65 -101 -3 0 -11 -12
-18 -27 -57 -134 -73 -178 -79 -209 l-7 -36 -42 7 c-38 5 -45 3 -59 -17 -9
-13 -21 -40 -27 -60 -5 -21 -14 -38 -19 -38 -6 0 -10 3 -10 8 0 18 51 213 70
266 35 102 36 177 5 302 -42 170 -63 229 -101 276 -18 24 -34 48 -34 53 0 6
-8 18 -17 26 -10 9 -52 55 -93 103 -107 125 -205 186 -455 283 -142 55 -173
63 -290 78 -122 15 -300 27 -307 20z m292 -61 c131 -13 165 -21 272 -60 249
-92 395 -191 533 -364 102 -128 114 -154 161 -355 31 -130 28 -197 -10 -320
-14 -44 -35 -123 -46 -176 -21 -93 -21 -101 -6 -225 9 -71 21 -152 27 -179 11
-45 9 -59 -10 -123 -19 -61 -54 -132 -100 -202 -13 -20 10 47 49 140 36 85 35
104 -6 235 -14 44 -32 123 -41 176 -15 93 -15 100 5 180 31 125 39 339 17 470
-15 93 -22 113 -72 197 -55 93 -55 93 -129 127 -42 19 -148 57 -237 85 -89 28
-171 55 -182 60 -61 25 -322 77 -333 66 -3 -4 5 -17 19 -29 13 -12 38 -56 54
-97 27 -72 28 -77 17 -151 -20 -141 -91 -243 -200 -288 -48 -20 -61 -21 -131
-13 -55 7 -90 17 -119 36 -23 14 -45 26 -50 26 -14 0 -48 41 -80 97 -23 38
-33 72 -40 133 -10 79 -9 85 22 168 29 80 36 89 86 126 l55 38 -155 -5 c-159
-6 -187 -13 -355 -83 -19 -8 -19 -7 2 19 38 49 117 107 218 162 136 73 221
104 345 125 134 23 233 24 420 4z m-425 -929 c143 -14 175 -21 310 -66 148
-49 430 -182 540 -254 44 -29 110 -94 102 -101 -1 -2 -52 22 -112 53 -215 111
-321 152 -540 208 -327 83 -448 94 -779 69 -321 -24 -451 -59 -512 -139 -15
-20 -29 -33 -32 -31 -10 10 40 74 90 115 72 58 126 84 233 110 206 50 431 61
700 36z m-396 -335 c57 -26 156 -98 205 -148 25 -26 44 -38 55 -35 27 10 61
45 89 92 l26 44 19 -52 c24 -63 44 -66 86 -10 l30 42 6 -29 c22 -102 69 -170
109 -158 24 7 270 101 301 116 26 12 141 -35 224 -91 75 -52 81 -69 81 -260
l0 -145 -45 -42 c-25 -23 -67 -53 -93 -66 -44 -22 -58 -23 -235 -23 l-187 0
-38 -42 c-60 -69 -116 -78 -257 -43 -152 39 -180 65 -170 162 7 66 11 63 -113
77 -93 10 -129 29 -213 115 -53 54 -78 98 -86 154 -3 20 -11 51 -19 69 -17 37
-20 283 -4 283 6 0 10 -15 11 -32 0 -32 1 -32 10 -8 5 14 17 31 26 38 26 19
131 15 182 -8z m1521 -568 c1 -48 -69 -109 -109 -94 -19 7 -18 10 16 90 l36
83 28 -33 c16 -18 28 -39 29 -46z m-349 -252 c79 -15 107 -47 114 -130 4 -50
10 -69 25 -80 20 -15 18 -20 -92 -164 -61 -81 -118 -151 -126 -154 -15 -5 -51
1 -247 43 -60 13 -177 38 -260 55 -82 18 -152 34 -154 36 -5 5 21 68 32 75 5
4 28 2 51 -3 72 -17 318 -68 407 -85 47 -9 96 -13 110 -9 14 4 69 61 131 135
l107 128 -11 42 c-9 36 -17 44 -56 61 -58 26 -84 26 -202 5 -52 -9 -122 -19
-155 -21 -58 -4 -59 -4 -33 11 31 17 225 63 274 64 17 1 56 -4 85 -9z m-2333
-596 c-2 -52 -28 -80 -59 -64 -10 6 -43 10 -74 10 -36 0 -54 4 -50 10 6 10
163 89 178 90 4 0 6 -21 5 -46z m-100 -117 c9 -10 5 -23 -14 -51 -41 -60 -67
-125 -84 -210 l-15 -79 -30 54 c-54 98 -37 238 34 282 32 20 94 22 109 4z
m1358 -633 c90 -27 107 -39 70 -48 -13 -3 -52 -22 -86 -41 -49 -28 -66 -33
-81 -25 -10 6 -19 14 -19 19 0 5 -23 18 -51 31 l-52 22 44 24 c24 13 51 28 59
33 21 14 24 14 116 -15z"/>
<path d="M2302 4783 c-12 -3 -40 -21 -61 -41 -30 -29 -41 -48 -46 -83 -13 -85
23 -161 89 -193 99 -47 200 10 227 128 10 47 9 60 -5 98 -10 24 -29 55 -44 71
-22 24 -33 27 -81 26 -31 -1 -66 -4 -79 -6z"/>
<path d="M1992 3693 c-56 -22 -65 -232 -12 -275 30 -25 74 -23 104 5 19 17 26
35 31 85 l6 63 -32 11 -32 11 27 22 c24 19 26 25 17 43 -19 36 -68 52 -109 35z"/>
<path d="M2674 3588 c-38 -18 -49 -54 -49 -155 0 -91 1 -96 28 -119 32 -28 56
-30 96 -9 33 16 41 39 41 112 0 48 -2 53 -25 59 -31 8 -32 17 -4 36 30 19 17
56 -27 74 -18 8 -35 14 -36 13 -2 0 -13 -5 -24 -11z"/>
<path d="M2412 3108 c-27 -28 -40 -33 -85 -34 -61 -2 -72 -24 -17 -36 43 -9
110 20 135 59 26 39 4 47 -33 11z"/>
</g>
</svg>
