# WaveFront *.obj file (generated by Autodesk ATF)

mtllib 420b4de5-484e-442c-b855-a90bc063f074.mtl

g Body1

v 75.000000 295.000000 5.000000
v 75.000000 300.000000 5.000000
v 75.000000 300.000000 150.000000
v 75.000000 295.000000 150.000000
v 5.000000 295.000000 5.000000
v 5.000000 295.000000 150.000000
v 85.000000 60.000000 5.000000
v 86.362967 70.352762 5.000000
v 90.358984 80.000000 5.000000
v 96.715729 88.284271 5.000000
v 105.000000 94.641016 5.000000
v 114.647238 98.637033 5.000000
v 125.000000 100.000000 5.000000
v 135.352762 98.637033 5.000000
v 145.000000 94.641016 5.000000
v 153.284271 88.284271 5.000000
v 159.641016 80.000000 5.000000
v 163.637033 70.352762 5.000000
v 165.000000 60.000000 5.000000
v 163.637033 49.647238 5.000000
v 159.641016 40.000000 5.000000
v 153.284271 31.715729 5.000000
v 145.000000 25.358984 5.000000
v 135.352762 21.362967 5.000000
v 125.000000 20.000000 5.000000
v 114.647238 21.362967 5.000000
v 105.000000 25.358984 5.000000
v 96.715729 31.715729 5.000000
v 90.358984 40.000000 5.000000
v 86.362967 49.647238 5.000000
v 5.000000 5.000000 5.000000
v 245.000000 5.000000 5.000000
v 245.000000 295.000000 5.000000
v 175.000000 295.000000 5.000000
v 175.000000 300.000000 5.000000
v 5.000000 5.000000 150.000000
v 245.000000 295.000000 150.000000
v 175.000000 295.000000 150.000000
v 175.000000 300.000000 150.000000
v 85.000000 60.000000 0.000000
v 86.362967 70.352762 0.000000
v 90.358984 80.000000 0.000000
v 96.715729 88.284271 0.000000
v 105.000000 94.641016 0.000000
v 114.647238 98.637033 0.000000
v 125.000000 100.000000 0.000000
v 135.352762 98.637033 0.000000
v 145.000000 94.641016 0.000000
v 153.284271 88.284271 0.000000
v 159.641016 80.000000 0.000000
v 163.637033 70.352762 0.000000
v 165.000000 60.000000 0.000000
v 163.637033 49.647238 0.000000
v 159.641016 40.000000 0.000000
v 153.284271 31.715729 0.000000
v 145.000000 25.358984 0.000000
v 135.352762 21.362967 0.000000
v 125.000000 20.000000 0.000000
v 114.647238 21.362967 0.000000
v 105.000000 25.358984 0.000000
v 96.715729 31.715729 0.000000
v 90.358984 40.000000 0.000000
v 86.362967 49.647238 0.000000
v 245.000000 5.000000 150.000000
v 0.000000 300.000000 150.000000
v 0.000000 0.000000 150.000000
v 250.000000 0.000000 150.000000
v 250.000000 300.000000 150.000000
v 250.000000 300.000000 0.000000
v 0.000000 300.000000 0.000000
v 250.000000 0.000000 0.000000
v 0.000000 0.000000 0.000000
vt 0.000000 0.000000 0.000000
vt 0.500000 0.000000 0.000000
vt 0.000000 14.500000 0.000000
vt 0.500000 14.500000 0.000000
vt 0.000000 0.000000 0.000000
vt 7.000000 0.000000 0.000000
vt 0.000000 14.500000 0.000000
vt 7.000000 14.500000 0.000000
vt -3.863703 -10.035276 0.000000
vt -4.000000 -9.000000 0.000000
vt -12.000000 -14.500000 0.000000
vt -3.863703 -7.964724 0.000000
vt -3.464102 -7.000000 0.000000
vt -12.000000 14.500000 0.000000
vt -2.828427 -6.171573 0.000000
vt -5.000000 14.500000 0.000000
vt -2.000000 -5.535898 0.000000
vt -1.035276 -5.136297 0.000000
vt 0.000000 -5.000000 0.000000
vt 5.000000 14.500000 0.000000
vt -5.000000 15.000000 0.000000
vt 5.000000 15.000000 0.000000
vt 1.035276 -5.136297 0.000000
vt 2.000000 -5.535898 0.000000
vt 2.828427 -6.171573 0.000000
vt 12.000000 14.500000 0.000000
vt 3.464102 -7.000000 0.000000
vt 12.000000 -14.500000 0.000000
vt 3.863703 -7.964724 0.000000
vt 4.000000 -9.000000 0.000000
vt 3.863703 -10.035276 0.000000
vt 3.464102 -11.000000 0.000000
vt 2.828427 -11.828427 0.000000
vt 2.000000 -12.464102 0.000000
vt 1.035276 -12.863703 0.000000
vt 0.000000 -13.000000 0.000000
vt -1.035276 -12.863703 0.000000
vt -2.000000 -12.464102 0.000000
vt -2.828427 -11.828427 0.000000
vt -3.464102 -11.000000 0.000000
vt -0.500000 15.000000 0.000000
vt -29.500000 15.000000 0.000000
vt -0.500000 0.500000 0.000000
vt -29.500000 0.500000 0.000000
vt 0.000000 0.000000 0.000000
vt 7.000000 0.000000 0.000000
vt 0.000000 14.500000 0.000000
vt 7.000000 14.500000 0.000000
vt 0.000000 0.000000 0.000000
vt 0.500000 0.000000 0.000000
vt 0.000000 14.500000 0.000000
vt 0.500000 14.500000 0.000000
vt 0.500000 -11.519173 0.000000
vt 0.000000 -11.519173 0.000000
vt 0.500000 -12.566371 0.000000
vt 0.000000 -12.566371 0.000000
vt 0.500000 12.566371 0.000000
vt 0.000000 12.566371 0.000000
vt 0.500000 11.519173 0.000000
vt 0.000000 11.519173 0.000000
vt 0.500000 10.471976 0.000000
vt 0.000000 10.471976 0.000000
vt 0.500000 9.424778 0.000000
vt 0.000000 9.424778 0.000000
vt 0.500000 8.377580 0.000000
vt 0.000000 8.377580 0.000000
vt 0.500000 7.330383 0.000000
vt 0.000000 7.330383 0.000000
vt 0.500000 6.283185 0.000000
vt 0.000000 6.283185 0.000000
vt 0.500000 5.235988 0.000000
vt 0.000000 5.235988 0.000000
vt 0.500000 4.188790 0.000000
vt 0.000000 4.188790 0.000000
vt 0.500000 3.141593 0.000000
vt 0.000000 3.141593 0.000000
vt 0.500000 2.094395 0.000000
vt 0.000000 2.094395 0.000000
vt 0.500000 1.047198 0.000000
vt 0.000000 1.047198 0.000000
vt 0.500000 0.000000 0.000000
vt 0.000000 0.000000 0.000000
vt 0.500000 -1.047198 0.000000
vt 0.000000 -1.047198 0.000000
vt 0.500000 -2.094395 0.000000
vt 0.000000 -2.094395 0.000000
vt 0.500000 -3.141593 0.000000
vt 0.000000 -3.141593 0.000000
vt 0.500000 -4.188790 0.000000
vt 0.000000 -4.188790 0.000000
vt 0.500000 -5.235988 0.000000
vt 0.000000 -5.235988 0.000000
vt 0.500000 -6.283185 0.000000
vt 0.000000 -6.283185 0.000000
vt 0.500000 -7.330383 0.000000
vt 0.000000 -7.330383 0.000000
vt 0.500000 -8.377580 0.000000
vt 0.000000 -8.377580 0.000000
vt 0.500000 -9.424778 0.000000
vt 0.000000 -9.424778 0.000000
vt 0.500000 -10.471976 0.000000
vt 0.000000 -10.471976 0.000000
vt -29.500000 0.500000 0.000000
vt -0.500000 0.500000 0.000000
vt -29.500000 15.000000 0.000000
vt -0.500000 15.000000 0.000000
vt -24.500000 0.500000 0.000000
vt -0.500000 0.500000 0.000000
vt -24.500000 15.000000 0.000000
vt -0.500000 15.000000 0.000000
vt 12.000000 -14.500000 0.000000
vt 12.500000 -15.000000 0.000000
vt 12.000000 14.500000 0.000000
vt 12.500000 15.000000 0.000000
vt 5.000000 15.000000 0.000000
vt -12.000000 -14.500000 0.000000
vt -12.500000 -15.000000 0.000000
vt -12.000000 14.500000 0.000000
vt -12.500000 15.000000 0.000000
vt -5.000000 15.000000 0.000000
vt -5.000000 14.500000 0.000000
vt 5.000000 14.500000 0.000000
vt 7.500000 15.000000 0.000000
vt 0.000000 15.000000 0.000000
vt 7.500000 0.500000 0.000000
vt 0.000000 0.000000 0.000000
vt 25.000000 0.000000 0.000000
vt 17.500000 0.500000 0.000000
vt 25.000000 15.000000 0.000000
vt 17.500000 15.000000 0.000000
vt 0.000000 0.000000 0.000000
vt 30.000000 0.000000 0.000000
vt 0.000000 15.000000 0.000000
vt 30.000000 15.000000 0.000000
vt 0.000000 0.000000 0.000000
vt 25.000000 0.000000 0.000000
vt 0.000000 15.000000 0.000000
vt 25.000000 15.000000 0.000000
vt 0.000000 0.000000 0.000000
vt 30.000000 0.000000 0.000000
vt 0.000000 15.000000 0.000000
vt 30.000000 15.000000 0.000000
vt 3.863703 -7.964724 0.000000
vt 4.000000 -9.000000 0.000000
vt 12.500000 -15.000000 0.000000
vt 3.863703 -10.035276 0.000000
vt 3.464102 -11.000000 0.000000
vt 2.828427 -11.828427 0.000000
vt 2.000000 -12.464102 0.000000
vt 1.035276 -12.863703 0.000000
vt -0.000000 -13.000000 0.000000
vt -12.500000 -15.000000 0.000000
vt -1.035276 -12.863703 0.000000
vt -2.000000 -12.464102 0.000000
vt -2.828427 -11.828427 0.000000
vt -3.464102 -11.000000 0.000000
vt -3.863703 -10.035276 0.000000
vt -4.000000 -9.000000 0.000000
vt -3.863703 -7.964724 0.000000
vt -3.464102 -7.000000 0.000000
vt -12.500000 15.000000 0.000000
vt -2.828427 -6.171573 0.000000
vt -2.000000 -5.535898 0.000000
vt -1.035276 -5.136297 0.000000
vt -0.000000 -5.000000 0.000000
vt 12.500000 15.000000 0.000000
vt 1.035276 -5.136297 0.000000
vt 2.000000 -5.535898 0.000000
vt 2.828427 -6.171573 0.000000
vt 3.464102 -7.000000 0.000000
vn 0.100000 0.000000 0.000000
vn 0.100000 0.000000 0.000000
vn 0.100000 0.000000 0.000000
vn 0.100000 0.000000 0.000000
vn 0.000000 -0.100000 0.000000
vn 0.000000 -0.100000 0.000000
vn 0.000000 -0.100000 0.000000
vn 0.000000 -0.100000 0.000000
vn 0.000000 0.000000 0.100000
vn 0.000000 0.000000 0.100000
vn 0.000000 0.000000 0.100000
vn 0.000000 0.000000 0.100000
vn 0.000000 0.000000 0.100000
vn 0.000000 0.000000 0.100000
vn 0.000000 0.000000 0.100000
vn 0.000000 0.000000 0.100000
vn 0.000000 0.000000 0.100000
vn 0.000000 0.000000 0.100000
vn 0.000000 0.000000 0.100000
vn 0.000000 0.000000 0.100000
vn 0.000000 0.000000 0.100000
vn 0.000000 0.000000 0.100000
vn 0.000000 0.000000 0.100000
vn 0.000000 0.000000 0.100000
vn 0.000000 0.000000 0.100000
vn 0.000000 0.000000 0.100000
vn 0.000000 0.000000 0.100000
vn 0.000000 0.000000 0.100000
vn 0.000000 0.000000 0.100000
vn 0.000000 0.000000 0.100000
vn 0.000000 0.000000 0.100000
vn 0.000000 0.000000 0.100000
vn 0.000000 0.000000 0.100000
vn 0.000000 0.000000 0.100000
vn 0.000000 0.000000 0.100000
vn 0.000000 0.000000 0.100000
vn 0.000000 0.000000 0.100000
vn 0.000000 0.000000 0.100000
vn 0.000000 0.000000 0.100000
vn 0.000000 0.000000 0.100000
vn 0.100000 0.000000 0.000000
vn 0.100000 0.000000 0.000000
vn 0.100000 0.000000 0.000000
vn 0.100000 0.000000 0.000000
vn 0.000000 -0.100000 0.000000
vn 0.000000 -0.100000 0.000000
vn 0.000000 -0.100000 0.000000
vn 0.000000 -0.100000 0.000000
vn -0.100000 0.000000 0.000000
vn -0.100000 0.000000 0.000000
vn -0.100000 0.000000 0.000000
vn -0.100000 0.000000 0.000000
vn 0.096593 0.025882 0.000000
vn 0.096593 0.025882 0.000000
vn 0.100000 0.000000 0.000000
vn 0.100000 0.000000 0.000000
vn 0.096593 -0.025882 0.000000
vn 0.096593 -0.025882 0.000000
vn 0.086603 -0.050000 0.000000
vn 0.086603 -0.050000 0.000000
vn 0.070711 -0.070711 0.000000
vn 0.070711 -0.070711 0.000000
vn 0.050000 -0.086603 0.000000
vn 0.050000 -0.086603 0.000000
vn 0.025882 -0.096593 0.000000
vn 0.025882 -0.096593 0.000000
vn -0.000000 -0.100000 0.000000
vn -0.000000 -0.100000 0.000000
vn -0.025882 -0.096593 0.000000
vn -0.025882 -0.096593 0.000000
vn -0.050000 -0.086603 0.000000
vn -0.050000 -0.086603 0.000000
vn -0.070711 -0.070711 0.000000
vn -0.070711 -0.070711 0.000000
vn -0.086603 -0.050000 0.000000
vn -0.086603 -0.050000 0.000000
vn -0.096593 -0.025882 0.000000
vn -0.096593 -0.025882 0.000000
vn -0.100000 0.000000 0.000000
vn -0.100000 0.000000 0.000000
vn -0.096593 0.025882 0.000000
vn -0.096593 0.025882 0.000000
vn -0.086603 0.050000 0.000000
vn -0.086603 0.050000 0.000000
vn -0.070711 0.070711 0.000000
vn -0.070711 0.070711 0.000000
vn -0.050000 0.086603 0.000000
vn -0.050000 0.086603 0.000000
vn -0.025882 0.096593 0.000000
vn -0.025882 0.096593 0.000000
vn -0.000000 0.100000 0.000000
vn -0.000000 0.100000 0.000000
vn 0.025882 0.096593 0.000000
vn 0.025882 0.096593 0.000000
vn 0.050000 0.086603 0.000000
vn 0.050000 0.086603 0.000000
vn 0.070711 0.070711 0.000000
vn 0.070711 0.070711 0.000000
vn 0.086603 0.050000 0.000000
vn 0.086603 0.050000 0.000000
vn -0.100000 0.000000 0.000000
vn -0.100000 0.000000 0.000000
vn -0.100000 0.000000 0.000000
vn -0.100000 0.000000 0.000000
vn -0.000000 0.100000 -0.000000
vn -0.000000 0.100000 -0.000000
vn -0.000000 0.100000 -0.000000
vn -0.000000 0.100000 -0.000000
vn 0.000000 0.000000 0.100000
vn 0.000000 0.000000 0.100000
vn 0.000000 0.000000 0.100000
vn 0.000000 0.000000 0.100000
vn 0.000000 0.000000 0.100000
vn 0.000000 0.000000 0.100000
vn 0.000000 0.000000 0.100000
vn 0.000000 0.000000 0.100000
vn 0.000000 0.000000 0.100000
vn 0.000000 0.000000 0.100000
vn 0.000000 0.000000 0.100000
vn 0.000000 0.000000 0.100000
vn 0.000000 0.100000 0.000000
vn 0.000000 0.100000 0.000000
vn 0.000000 0.100000 0.000000
vn 0.000000 0.100000 0.000000
vn 0.000000 0.100000 0.000000
vn 0.000000 0.100000 0.000000
vn 0.000000 0.100000 0.000000
vn 0.000000 0.100000 0.000000
vn 0.100000 0.000000 0.000000
vn 0.100000 0.000000 0.000000
vn 0.100000 0.000000 0.000000
vn 0.100000 0.000000 0.000000
vn 0.000000 -0.100000 0.000000
vn 0.000000 -0.100000 0.000000
vn 0.000000 -0.100000 0.000000
vn 0.000000 -0.100000 0.000000
vn -0.100000 0.000000 0.000000
vn -0.100000 0.000000 0.000000
vn -0.100000 0.000000 0.000000
vn -0.100000 0.000000 0.000000
vn 0.000000 0.000000 -0.100000
vn 0.000000 0.000000 -0.100000
vn 0.000000 0.000000 -0.100000
vn 0.000000 0.000000 -0.100000
vn 0.000000 0.000000 -0.100000
vn 0.000000 0.000000 -0.100000
vn 0.000000 0.000000 -0.100000
vn 0.000000 0.000000 -0.100000
vn 0.000000 0.000000 -0.100000
vn 0.000000 0.000000 -0.100000
vn 0.000000 0.000000 -0.100000
vn 0.000000 0.000000 -0.100000
vn 0.000000 0.000000 -0.100000
vn 0.000000 0.000000 -0.100000
vn 0.000000 0.000000 -0.100000
vn 0.000000 0.000000 -0.100000
vn 0.000000 0.000000 -0.100000
vn 0.000000 0.000000 -0.100000
vn 0.000000 0.000000 -0.100000
vn 0.000000 0.000000 -0.100000
vn 0.000000 0.000000 -0.100000
vn 0.000000 0.000000 -0.100000
vn 0.000000 0.000000 -0.100000
vn 0.000000 0.000000 -0.100000
vn 0.000000 0.000000 -0.100000
vn 0.000000 0.000000 -0.100000
vn 0.000000 0.000000 -0.100000
vn 0.000000 0.000000 -0.100000
usemtl Steel_-_Satin
f 1/1/1 2/2/2 4/3/3
f 4/3/3 2/2/2 3/4/4
f 5/5/5 1/6/6 6/7/7
f 6/7/7 1/6/6 4/8/8
f 30/9/9 7/10/10 31/11/11
f 31/11/11 7/10/10 8/12/12
f 31/11/11 8/12/12 9/13/13
f 31/11/11 9/13/13 5/14/14
f 5/14/14 9/13/13 10/15/15
f 5/14/14 10/15/15 1/16/16
f 1/16/16 10/15/15 11/17/17
f 1/16/16 11/17/17 12/18/18
f 12/18/18 13/19/19 1/16/16
f 1/16/16 13/19/19 34/20/20
f 1/16/16 34/20/20 2/21/21
f 2/21/21 34/20/20 35/22/22
f 13/19/19 14/23/23 34/20/20
f 34/20/20 14/23/23 15/24/24
f 34/20/20 15/24/24 16/25/25
f 34/20/20 16/25/25 33/26/26
f 33/26/26 16/25/25 17/27/27
f 33/26/26 17/27/27 32/28/28
f 32/28/28 17/27/27 18/29/29
f 32/28/28 18/29/29 19/30/30
f 19/30/30 20/31/31 32/28/28
f 32/28/28 20/31/31 21/32/32
f 32/28/28 21/32/32 22/33/33
f 22/33/33 23/34/34 32/28/28
f 32/28/28 23/34/34 24/35/35
f 32/28/28 24/35/35 25/36/36
f 32/28/28 25/36/36 31/11/11
f 31/11/11 25/36/36 26/37/37
f 31/11/11 26/37/37 27/38/38
f 27/38/38 28/39/39 31/11/11
f 31/11/11 28/39/39 29/40/40
f 31/11/11 29/40/40 30/9/9
f 6/41/41 36/42/42 5/43/43
f 5/43/43 36/42/42 31/44/44
f 34/45/45 33/46/46 38/47/47
f 38/47/47 33/46/46 37/48/48
f 35/49/49 34/50/50 39/51/51
f 39/51/51 34/50/50 38/52/52
f 30/53/53 63/54/54 7/55/55
f 7/55/55 63/54/54 40/56/56
f 7/57/55 40/58/56 8/59/57
f 8/59/57 40/58/56 41/60/58
f 8/59/57 41/60/58 9/61/59
f 9/61/59 41/60/58 42/62/60
f 9/61/59 42/62/60 10/63/61
f 10/63/61 42/62/60 43/64/62
f 10/63/61 43/64/62 11/65/63
f 11/65/63 43/64/62 44/66/64
f 11/65/63 44/66/64 12/67/65
f 12/67/65 44/66/64 45/68/66
f 12/67/65 45/68/66 13/69/67
f 13/69/67 45/68/66 46/70/68
f 13/69/67 46/70/68 14/71/69
f 14/71/69 46/70/68 47/72/70
f 14/71/69 47/72/70 15/73/71
f 15/73/71 47/72/70 48/74/72
f 15/73/71 48/74/72 16/75/73
f 16/75/73 48/74/72 49/76/74
f 16/75/73 49/76/74 17/77/75
f 17/77/75 49/76/74 50/78/76
f 17/77/75 50/78/76 18/79/77
f 18/79/77 50/78/76 51/80/78
f 18/79/77 51/80/78 19/81/79
f 19/81/79 51/80/78 52/82/80
f 19/81/79 52/82/80 20/83/81
f 20/83/81 52/82/80 53/84/82
f 20/83/81 53/84/82 21/85/83
f 21/85/83 53/84/82 54/86/84
f 21/85/83 54/86/84 22/87/85
f 22/87/85 54/86/84 55/88/86
f 22/87/85 55/88/86 23/89/87
f 23/89/87 55/88/86 56/90/88
f 23/89/87 56/90/88 24/91/89
f 24/91/89 56/90/88 57/92/90
f 24/91/89 57/92/90 25/93/91
f 25/93/91 57/92/90 58/94/92
f 25/93/91 58/94/92 26/95/93
f 26/95/93 58/94/92 59/96/94
f 26/95/93 59/96/94 27/97/95
f 27/97/95 59/96/94 60/98/96
f 27/97/95 60/98/96 28/99/97
f 28/99/97 60/98/96 61/100/98
f 28/99/97 61/100/98 29/101/99
f 29/101/99 61/100/98 62/102/100
f 29/101/99 62/102/100 30/53/53
f 30/53/53 62/102/100 63/54/54
f 33/103/101 32/104/102 37/105/103
f 37/105/103 32/104/102 64/106/104
f 32/107/105 31/108/106 64/109/107
f 64/109/107 31/108/106 36/110/108
f 64/111/109 67/112/110 37/113/111
f 37/113/111 67/112/110 68/114/112
f 37/113/111 68/114/112 39/115/113
f 64/111/109 36/116/114 67/112/110
f 67/112/110 36/116/114 66/117/115
f 66/117/115 36/116/114 6/118/116
f 66/117/115 6/118/116 65/119/117
f 65/119/117 6/118/116 3/120/118
f 3/120/118 6/118/116 4/121/119
f 39/115/113 38/122/120 37/113/111
f 39/123/121 68/124/122 35/125/123
f 35/125/123 68/124/122 69/126/124
f 35/125/123 69/126/124 70/127/125
f 35/125/123 70/127/125 2/128/126
f 2/128/126 70/127/125 65/129/127
f 2/128/126 65/129/127 3/130/128
f 71/131/129 69/132/130 67/133/131
f 67/133/131 69/132/130 68/134/132
f 72/135/133 71/136/134 66/137/135
f 66/137/135 71/136/134 67/138/136
f 70/139/137 72/140/138 65/141/139
f 65/141/139 72/140/138 66/142/140
f 41/143/141 40/144/142 72/145/143
f 72/145/143 40/144/142 63/146/144
f 72/145/143 63/146/144 62/147/145
f 62/147/145 61/148/146 72/145/143
f 72/145/143 61/148/146 60/149/147
f 72/145/143 60/149/147 59/150/148
f 59/150/148 58/151/149 72/145/143
f 72/145/143 58/151/149 71/152/150
f 71/152/150 58/151/149 57/153/151
f 71/152/150 57/153/151 56/154/152
f 56/154/152 55/155/153 71/152/150
f 71/152/150 55/155/153 54/156/154
f 71/152/150 54/156/154 53/157/155
f 53/157/155 52/158/156 71/152/150
f 71/152/150 52/158/156 51/159/157
f 71/152/150 51/159/157 50/160/158
f 71/152/150 50/160/158 69/161/159
f 69/161/159 50/160/158 49/162/160
f 69/161/159 49/162/160 48/163/161
f 48/163/161 47/164/162 69/161/159
f 69/161/159 47/164/162 46/165/163
f 69/161/159 46/165/163 70/166/164
f 70/166/164 46/165/163 45/167/165
f 70/166/164 45/167/165 44/168/166
f 44/168/166 43/169/167 70/166/164
f 70/166/164 43/169/167 42/170/168
f 70/166/164 42/170/168 72/145/143
f 72/145/143 42/170/168 41/143/141
# 72 vertices
# 170 texture params
# 168 normals
# 144 facets

# 1 groups
