# WaveFront *.obj file (generated by Autodesk ATF)

mtllib 985d382a-1520-4316-a230-e83efa9321a7.mtl

g Body1

v 240.000000 -10.000000 5.000000
v 240.000000 -140.000000 5.000000
v 240.000000 -140.000000 15.000000
v 240.000000 -10.000000 15.000000
v 10.000000 -10.000000 5.000000
v 10.000000 -10.000000 15.000000
v 10.000000 -140.000000 5.000000
v 10.000000 -140.000000 15.000000
v 245.000000 -145.000000 5.000000
v 245.000000 -5.000000 5.000000
v 245.000000 -5.000000 15.000000
v 245.000000 -145.000000 15.000000
v 5.000000 -145.000000 5.000000
v 5.000000 -145.000000 15.000000
v 5.000000 -5.000000 5.000000
v 5.000000 -5.000000 15.000000
v 0.000000 -150.000000 5.000000
v 250.000000 -150.000000 5.000000
v 250.000000 0.000000 5.000000
v 0.000000 0.000000 5.000000
v 0.000000 0.000000 0.000000
v 0.000000 -150.000000 0.000000
v 250.000000 0.000000 0.000000
v 250.000000 -150.000000 0.000000
vt 0.000000 0.000000 0.000000
vt 13.000000 0.000000 0.000000
vt 0.000000 1.000000 0.000000
vt 13.000000 1.000000 0.000000
vt 0.000000 0.000000 0.000000
vt 23.000000 0.000000 0.000000
vt 0.000000 1.000000 0.000000
vt 23.000000 1.000000 0.000000
vt 0.000000 0.000000 0.000000
vt 13.000000 0.000000 0.000000
vt 0.000000 1.000000 0.000000
vt 13.000000 1.000000 0.000000
vt 0.000000 0.000000 0.000000
vt 23.000000 0.000000 0.000000
vt 0.000000 1.000000 0.000000
vt 23.000000 1.000000 0.000000
vt 0.000000 0.000000 0.000000
vt 14.000000 0.000000 0.000000
vt 0.000000 1.000000 0.000000
vt 14.000000 1.000000 0.000000
vt 0.000000 0.000000 0.000000
vt 24.000000 0.000000 0.000000
vt 0.000000 1.000000 0.000000
vt 24.000000 1.000000 0.000000
vt -0.000000 0.000000 0.000000
vt 14.000000 0.000000 0.000000
vt -0.000000 1.000000 0.000000
vt 14.000000 1.000000 0.000000
vt -0.000000 0.000000 0.000000
vt 24.000000 0.000000 0.000000
vt -0.000000 1.000000 0.000000
vt 24.000000 1.000000 0.000000
vt 11.500000 6.500000 0.000000
vt 11.500000 -6.500000 0.000000
vt 12.000000 -7.000000 0.000000
vt -11.500000 -6.500000 0.000000
vt -12.000000 -7.000000 0.000000
vt -11.500000 6.500000 0.000000
vt -12.000000 7.000000 0.000000
vt 12.000000 7.000000 0.000000
vt 12.500000 -7.500000 0.000000
vt -12.000000 -7.000000 0.000000
vt -12.500000 -7.500000 0.000000
vt -12.000000 7.000000 0.000000
vt -12.500000 7.500000 0.000000
vt 12.000000 7.000000 0.000000
vt 12.500000 7.500000 0.000000
vt 12.000000 -7.000000 0.000000
vt -0.000000 0.000000 0.000000
vt 15.000000 0.000000 0.000000
vt -0.000000 0.500000 0.000000
vt 15.000000 0.500000 0.000000
vt -0.000000 0.000000 0.000000
vt 25.000000 0.000000 0.000000
vt -0.000000 0.500000 0.000000
vt 25.000000 0.500000 0.000000
vt 0.000000 0.000000 0.000000
vt 15.000000 0.000000 0.000000
vt 0.000000 0.500000 0.000000
vt 15.000000 0.500000 0.000000
vt 0.000000 0.000000 0.000000
vt 25.000000 0.000000 0.000000
vt 0.000000 0.500000 0.000000
vt 25.000000 0.500000 0.000000
vt 11.500000 6.500000 0.000000
vt -11.500000 6.500000 0.000000
vt 11.500000 -6.500000 0.000000
vt -11.500000 -6.500000 0.000000
vt -12.500000 -7.500000 0.000000
vt 12.500000 -7.500000 0.000000
vt -12.500000 7.500000 0.000000
vt 12.500000 7.500000 0.000000
vn -0.100000 0.000000 0.000000
vn -0.100000 0.000000 0.000000
vn -0.100000 0.000000 0.000000
vn -0.100000 0.000000 0.000000
vn 0.000000 -0.100000 0.000000
vn 0.000000 -0.100000 0.000000
vn 0.000000 -0.100000 0.000000
vn 0.000000 -0.100000 0.000000
vn 0.100000 0.000000 0.000000
vn 0.100000 0.000000 0.000000
vn 0.100000 0.000000 0.000000
vn 0.100000 0.000000 0.000000
vn 0.000000 0.100000 0.000000
vn 0.000000 0.100000 0.000000
vn 0.000000 0.100000 0.000000
vn 0.000000 0.100000 0.000000
vn 0.100000 0.000000 0.000000
vn 0.100000 0.000000 0.000000
vn 0.100000 0.000000 0.000000
vn 0.100000 0.000000 0.000000
vn 0.000000 -0.100000 0.000000
vn 0.000000 -0.100000 0.000000
vn 0.000000 -0.100000 0.000000
vn 0.000000 -0.100000 0.000000
vn -0.100000 0.000000 0.000000
vn -0.100000 0.000000 0.000000
vn -0.100000 0.000000 0.000000
vn -0.100000 0.000000 0.000000
vn 0.000000 0.100000 0.000000
vn 0.000000 0.100000 0.000000
vn 0.000000 0.100000 0.000000
vn 0.000000 0.100000 0.000000
vn 0.000000 0.000000 0.100000
vn 0.000000 0.000000 0.100000
vn 0.000000 0.000000 0.100000
vn 0.000000 0.000000 0.100000
vn 0.000000 0.000000 0.100000
vn 0.000000 0.000000 0.100000
vn 0.000000 0.000000 0.100000
vn 0.000000 0.000000 0.100000
vn 0.000000 0.000000 0.100000
vn 0.000000 0.000000 0.100000
vn 0.000000 0.000000 0.100000
vn 0.000000 0.000000 0.100000
vn 0.000000 0.000000 0.100000
vn 0.000000 0.000000 0.100000
vn 0.000000 0.000000 0.100000
vn 0.000000 0.000000 0.100000
vn -0.100000 0.000000 0.000000
vn -0.100000 0.000000 0.000000
vn -0.100000 0.000000 0.000000
vn -0.100000 0.000000 0.000000
vn 0.000000 0.100000 0.000000
vn 0.000000 0.100000 0.000000
vn 0.000000 0.100000 0.000000
vn 0.000000 0.100000 0.000000
vn 0.100000 0.000000 0.000000
vn 0.100000 0.000000 0.000000
vn 0.100000 0.000000 0.000000
vn 0.100000 0.000000 0.000000
vn 0.000000 -0.100000 0.000000
vn 0.000000 -0.100000 0.000000
vn 0.000000 -0.100000 0.000000
vn 0.000000 -0.100000 0.000000
vn 0.000000 0.000000 0.100000
vn 0.000000 0.000000 0.100000
vn 0.000000 0.000000 0.100000
vn 0.000000 0.000000 0.100000
vn -0.000000 0.000000 -0.100000
vn -0.000000 0.000000 -0.100000
vn -0.000000 0.000000 -0.100000
vn -0.000000 0.000000 -0.100000
usemtl Steel_-_Satin
f 1/1/1 2/2/2 4/3/3
f 4/3/3 2/2/2 3/4/4
f 5/5/5 1/6/6 6/7/7
f 6/7/7 1/6/6 4/8/8
f 7/9/9 5/10/10 8/11/11
f 8/11/11 5/10/10 6/12/12
f 2/13/13 7/14/14 3/15/15
f 3/15/15 7/14/14 8/16/16
f 9/17/17 10/18/18 12/19/19
f 12/19/19 10/18/18 11/20/20
f 13/21/21 9/22/22 14/23/23
f 14/23/23 9/22/22 12/24/24
f 15/25/25 13/26/26 16/27/27
f 16/27/27 13/26/26 14/28/28
f 10/29/29 15/30/30 11/31/31
f 11/31/31 15/30/30 16/32/32
f 4/33/33 3/34/34 12/35/35
f 12/35/35 3/34/34 8/36/36
f 12/35/35 8/36/36 14/37/37
f 14/37/37 8/36/36 6/38/38
f 14/37/37 6/38/38 16/39/39
f 16/39/39 6/38/38 4/33/33
f 16/39/39 4/33/33 11/40/40
f 11/40/40 4/33/33 12/35/35
f 18/41/41 13/42/42 17/43/43
f 17/43/43 13/42/42 15/44/44
f 17/43/43 15/44/44 20/45/45
f 20/45/45 15/44/44 10/46/46
f 20/45/45 10/46/46 19/47/47
f 19/47/47 10/46/46 18/41/41
f 18/41/41 10/46/46 9/48/48
f 18/41/41 9/48/48 13/42/42
f 21/49/49 22/50/50 20/51/51
f 20/51/51 22/50/50 17/52/52
f 23/53/53 21/54/54 19/55/55
f 19/55/55 21/54/54 20/56/56
f 24/57/57 23/58/58 18/59/59
f 18/59/59 23/58/58 19/60/60
f 22/61/61 24/62/62 17/63/63
f 17/63/63 24/62/62 18/64/64
f 1/65/65 5/66/66 2/67/67
f 2/67/67 5/66/66 7/68/68
f 24/69/69 22/70/70 23/71/71
f 23/71/71 22/70/70 21/72/72
# 24 vertices
# 72 texture params
# 72 normals
# 44 facets

# 1 groups
